<svg width="40" height="45" viewBox="0 0 40 45" fill="none" xmlns="http://www.w3.org/2000/svg">
<path d="M20.001 7.05875C19.9982 7.05875 19.9955 7.05875 19.9928 7.05875C19.99 7.05875 19.9873 7.05875 19.9846 7.05875C14.5224 7.05875 12.5849 11.173 12.5849 11.173C12.5849 11.173 12.9994 12.5142 16.0332 14.4998C18.5011 16.1152 19.3069 17.2457 19.9914 19.2759C20.6759 17.2457 21.4817 16.1152 23.9496 14.4998C26.9834 12.5142 27.3979 11.173 27.3979 11.173C27.3979 11.173 25.4618 7.05875 20.001 7.05875ZM19.9982 14.2242C19.9969 14.2242 19.9941 14.2242 19.9928 14.2242C19.9914 14.2242 19.9887 14.2242 19.9873 14.2242C16.8404 14.2242 14.1284 11.173 14.1284 11.173C14.1284 11.173 16.0877 8.12175 19.9873 8.12175C19.9887 8.12175 19.9914 8.12175 19.9928 8.12175C19.9941 8.12175 19.9969 8.12175 19.9982 8.12175C23.8978 8.12175 25.8585 11.173 25.8585 11.173C25.8585 11.173 23.1452 14.2242 19.9982 14.2242Z" fill="#B92454"/>
<path d="M19.9846 8.57425C18.5011 8.57425 17.2985 9.75071 17.2985 11.2014C17.2985 12.652 18.5011 13.8285 19.9846 13.8285C21.4681 13.8285 22.672 12.652 22.672 11.2014C22.6707 9.75071 21.4681 8.57425 19.9846 8.57425ZM19.3942 11.5769C18.8897 11.5769 18.4806 11.15 18.4806 10.6233C18.4806 10.0965 18.8897 9.66967 19.3942 9.66967C19.8987 9.66967 20.3077 10.0965 20.3077 10.6233C20.3077 11.15 19.8987 11.5769 19.3942 11.5769Z" fill="#B92454"/>
<path d="M8.76708 10.1964C11.7777 7.62065 15.7018 6.06194 19.9928 6.06194C24.2864 6.06194 28.2119 7.62201 31.2239 10.2018C31.6479 9.81825 32.027 9.43195 32.342 9.0497C31.2375 7.68954 30.8339 6.10112 30.853 5.27989C29.964 5.98901 28.216 6.0714 26.2853 5.4906C26.1012 5.42576 25.9158 5.36363 25.729 5.3042C23.6906 4.56942 21.524 3.11471 19.9873 0.895508C18.4288 3.14713 16.2227 4.61129 14.1584 5.33662C14.0588 5.36903 13.9606 5.40145 13.8625 5.43522C11.8636 6.07275 10.0379 6.00927 9.12159 5.27989C9.13932 6.09841 8.73845 7.67738 7.6422 9.03349C7.95853 9.41979 8.34031 9.81014 8.76708 10.1964Z" fill="#B92454"/>
<path d="M37.1701 22.8282C37.1715 22.9133 37.1742 22.997 37.1742 23.0835C37.1742 32.483 29.4813 40.1037 19.9928 40.1037C10.5042 40.1037 2.81133 32.483 2.81133 23.0835C2.81133 22.9943 2.81269 22.9052 2.81405 22.816C2.28501 22.2812 1.80097 21.699 1.38647 21.0682C1.25694 22.0137 1.19012 22.9795 1.19012 23.9628C1.19012 38.7638 19.9928 44.1045 19.9928 44.1045C19.9928 44.1045 38.794 38.3532 38.794 23.9628C38.794 22.9849 38.7272 22.0232 38.599 21.0831C38.1845 21.7125 37.7005 22.2947 37.1701 22.8282Z" fill="#B92454"/>
<path d="M15.65 16.0707C12.3217 13.9487 5.96919 10.495 5.75239 7.14523C-8.0053 21.3168 11.8909 26.8587 11.8909 26.8587C11.8909 26.8587 7.51267 27.7921 7.51267 30.792C7.51267 35.9719 15.0896 38.2087 15.0896 38.2087C15.0896 38.2087 19.491 36.8013 19.491 25.6323C19.491 20.7171 18.7084 18.0197 15.65 16.0707Z" fill="#B92454"/>
<path d="M24.3464 16.0707C27.6747 13.9487 34.0272 10.495 34.244 7.14523C48.0017 21.3168 28.1056 26.8587 28.1056 26.8587C28.1056 26.8587 32.4838 27.7921 32.4838 30.792C32.4838 35.9719 24.9068 38.2087 24.9068 38.2087C24.9068 38.2087 20.5054 36.8013 20.5054 25.6323C20.5054 20.7171 21.2881 18.0197 24.3464 16.0707Z" fill="#B92454"/>
</svg>
